# xmcd
#
# Track frame offsets: 
#        151
#        13768
#        28937
#        43288
#        55945
#        70756
#        85635
#        98438
#        111143
#        126630
#        141121
#        154876
#        168735
#        182952
#        196851
#        210746
#        225539
#        240206
#        254423
#        270568
#        285239
#        300092
#        315539
#
# Disc length: 4400 seconds
#
# Revision: 5
# Processed by: cddbd v1.5.1PL2 Copyright (c) Steve Scherf et al.
# Submitted via: ExactAudioCopy v0.95b3
#
DISCID=3a112e17
DTITLE=Frank Sinatra - The Voice CD3
DYEAR=1998
DGENRE=Blues
TTITLE0=One For My Baby (and one more for the road)
TTITLE1=Nancy (with the laughing face)
TTITLE2=Try A Little Tenderness
TTITLE3=S'posin'
TTITLE4=Stella By Starlight
TTITLE5=Sunday, Monday Or Always
TTITLE6=Be Careful, It's My Heart
TTITLE7=Kiss Me Again
TTITLE8=Mam'selle
TTITLE9=My Melancholy Baby
TTITLE10=You Go To My Head
TTITLE11=Don't Forget Tonight Tomorrow
TTITLE12=Violets For Your Furs
TTITLE13=Our Love Affair
TTITLE14=Oh! What It Seemed To Be
TTITLE15=Full Moon And Empty Arms
TTITLE16=Just As Though You Were Here
TTITLE17=What'll I Do?
TTITLE18=Shake Down The Stars
TTITLE19=A Ghost Of A Chance
TTITLE20=That's How Much I Love You
TTITLE21=She's Funny That Way
TTITLE22=These Foolish Things
EXTD=YEAR: 2001
EXTT0=
EXTT1=
EXTT2=
EXTT3=
EXTT4=
EXTT5=
EXTT6=
EXTT7=
EXTT8=
EXTT9=
EXTT10=
EXTT11=
EXTT12=
EXTT13=
EXTT14=
EXTT15=
EXTT16=
EXTT17=
EXTT18=
EXTT19=
EXTT20=
EXTT21=
EXTT22=
PLAYORDER=
